<?xml version="1.0" encoding="UTF-8"?>
<!-- Generated by Pixelmator Pro 3.8 -->
<svg width="900" height="1280" viewBox="0 0 900 1280" xmlns="http://www.w3.org/2000/svg">
    <linearGradient id="linearGradient1" x1="0" y1="0" x2="900" y2="1280" gradientUnits="userSpaceOnUse">
        <stop offset="1e-05" stop-color="#0a0e1a" stop-opacity="1"/>
        <stop offset="0.65" stop-color="#0f1422" stop-opacity="1"/>
        <stop offset="1" stop-color="#2a1410" stop-opacity="1"/>
    </linearGradient>
    <path id="Path" fill="url(#linearGradient1)" stroke="none" d="M 0 0 L 900 0 L 900 1280 L 0 1280 Z"/>
    <text id="How-a-wildfire-reaches" xml:space="preserve" x="249.062988" y="52" font-family="Helvetica" font-size="26" fill="#ffffff">How a wildfire reaches your phone</text>
    <text id="From-satellite-detection-to" xml:space="preserve" x="228.317139" y="78" font-family="Helvetica" font-size="13" fill="#9ca3af">From satellite detection to push notification — under 30 minutes, end to end.</text>
    <linearGradient id="linearGradient2" x1="60" y1="110" x2="60" y2="245" gradientUnits="userSpaceOnUse">
        <stop offset="1e-05" stop-color="#1a2540" stop-opacity="1"/>
        <stop offset="1" stop-color="#0f172e" stop-opacity="1"/>
    </linearGradient>
    <path id="path1" fill="url(#linearGradient2)" stroke="#2a3a55" d="M 74 110 L 826 110 C 833.731995 110 840 116.268066 840 124 L 840 231 C 840 238.731934 833.731995 245 826 245 L 74 245 C 66.268013 245 60 238.731934 60 231 L 60 124 C 60 116.268066 66.268013 110 74 110 Z"/>
    <text id="SPACE--800-km" xml:space="preserve" x="79" y="142" font-family="Helvetica" font-size="11" fill="#7aa3d4" letter-spacing="2">SPACE · 800 km altitude</text>
    <g id="Group">
        <path id="path2" fill="#cbd5e1" stroke="none" d="M 152 160 L 188 160 C 190.209137 160 192 161.790894 192 164 L 192 186 C 192 188.209106 190.209137 190 188 190 L 152 190 C 149.790863 190 148 188.209106 148 186 L 148 164 C 148 161.790894 149.790863 160 152 160 Z"/>
        <path id="path3" fill="#1e293b" stroke="none" d="M 164 165 L 176 165 C 177.104568 165 178 165.895386 178 167 L 178 183 C 178 184.104614 177.104568 185 176 185 L 164 185 C 162.895432 185 162 184.104614 162 183 L 162 167 C 162 165.895386 162.895432 165 164 165 Z"/>
        <path id="path4" fill="#3b82f6" stroke="#1e40af" d="M 112 168 L 144 168 L 144 182 L 112 182 Z"/>
        <path id="path5" fill="#3b82f6" stroke="#1e40af" d="M 196 168 L 228 168 L 228 182 L 196 182 Z"/>
        <text id="NOAA-20" xml:space="preserve" x="140.18457" y="215" font-family="Helvetica" font-size="13" fill="#ffffff">NOAA-20</text>
        <text id="VIIRS-sensor" xml:space="preserve" x="139.044434" y="231" font-family="Helvetica" font-size="10" fill="#9ca3af">VIIRS sensor</text>
    </g>
    <g id="g1">
        <path id="path6" fill="#cbd5e1" stroke="none" d="M 432 160 L 468 160 C 470.209137 160 472 161.790894 472 164 L 472 186 C 472 188.209106 470.209137 190 468 190 L 432 190 C 429.790863 190 428 188.209106 428 186 L 428 164 C 428 161.790894 429.790863 160 432 160 Z"/>
        <path id="path7" fill="#1e293b" stroke="none" d="M 444 165 L 456 165 C 457.104584 165 458 165.895386 458 167 L 458 183 C 458 184.104614 457.104584 185 456 185 L 444 185 C 442.895416 185 442 184.104614 442 183 L 442 167 C 442 165.895386 442.895416 165 444 165 Z"/>
        <path id="path8" fill="#3b82f6" stroke="#1e40af" d="M 392 168 L 424 168 L 424 182 L 392 182 Z"/>
        <path id="path9" fill="#3b82f6" stroke="#1e40af" d="M 476 168 L 508 168 L 508 182 L 476 182 Z"/>
        <text id="Suomi-NPP" xml:space="preserve" x="414.046387" y="215" font-family="Helvetica" font-size="13" fill="#ffffff">Suomi-NPP</text>
        <text id="text1" xml:space="preserve" x="419.044434" y="231" font-family="Helvetica" font-size="10" fill="#9ca3af">VIIRS sensor</text>
    </g>
    <g id="g2">
        <path id="path10" fill="#cbd5e1" stroke="none" d="M 712 160 L 748 160 C 750.209167 160 752 161.790894 752 164 L 752 186 C 752 188.209106 750.209167 190 748 190 L 712 190 C 709.790833 190 708 188.209106 708 186 L 708 164 C 708 161.790894 709.790833 160 712 160 Z"/>
        <path id="path11" fill="#1e293b" stroke="none" d="M 724 165 L 736 165 C 737.104553 165 738 165.895386 738 167 L 738 183 C 738 184.104614 737.104553 185 736 185 L 724 185 C 722.895447 185 722 184.104614 722 183 L 722 167 C 722 165.895386 722.895447 165 724 165 Z"/>
        <path id="path12" fill="#3b82f6" stroke="#1e40af" d="M 672 168 L 704 168 L 704 182 L 672 182 Z"/>
        <path id="path13" fill="#3b82f6" stroke="#1e40af" d="M 756 168 L 788 168 L 788 182 L 756 182 Z"/>
        <text id="NOAA-21" xml:space="preserve" x="700.18457" y="215" font-family="Helvetica" font-size="13" fill="#ffffff">NOAA-21</text>
        <text id="text2" xml:space="preserve" x="699.044434" y="231" font-family="Helvetica" font-size="10" fill="#9ca3af">VIIRS sensor</text>
    </g>
    <text id="Each-satellite-passes-over" xml:space="preserve" x="278.714844" y="234" font-family="Helvetica" font-size="11" font-style="italic" fill="#6b7280">Each satellite passes over Europe twice a day · 375 m pixel resolution</text>
    <path id="path14" fill="#000000" stroke="#ff8a4d" stroke-width="2" d="M 450 265 L 450 305"/>
    <text id="raw-thermal-data" xml:space="preserve" x="464" y="292" font-family="Helvetica" font-size="11" fill="#9ca3af">raw thermal data</text>
    <linearGradient id="linearGradient3" x1="240" y1="320" x2="240" y2="420" gradientUnits="userSpaceOnUse">
        <stop offset="1e-05" stop-color="#1e3a5f" stop-opacity="1"/>
        <stop offset="1" stop-color="#152944" stop-opacity="1"/>
    </linearGradient>
    <path id="path15" fill="url(#linearGradient3)" stroke="#2a4a78" d="M 254 320 L 646 320 C 653.731995 320 660 326.268005 660 334 L 660 406 C 660 413.731995 653.731995 420 646 420 L 254 420 C 246.268021 420 240 413.731995 240 406 L 240 334 C 240 326.268005 246.268021 320 254 320 Z"/>
    <text id="NASA--USA" xml:space="preserve" x="259" y="352" font-family="Helvetica" font-size="11" fill="#7aa3d4" letter-spacing="2">NASA · USA</text>
    <g id="g3">
        <path id="path16" fill="#3b82f6" stroke="none" d="M 274.5 373 L 315.5 373 C 316.32843 373 317 373.67157 317 374.5 L 317 379.5 C 317 380.32843 316.32843 381 315.5 381 L 274.5 381 C 273.67157 381 273 380.32843 273 379.5 L 273 374.5 C 273 373.67157 273.67157 373 274.5 373 Z"/>
        <path id="path17" fill="#3b82f6" stroke="none" d="M 274.5 383 L 315.5 383 C 316.32843 383 317 383.67157 317 384.5 L 317 389.5 C 317 390.32843 316.32843 391 315.5 391 L 274.5 391 C 273.67157 391 273 390.32843 273 389.5 L 273 384.5 C 273 383.67157 273.67157 383 274.5 383 Z"/>
        <path id="path18" fill="#3b82f6" stroke="none" d="M 274.5 393 L 315.5 393 C 316.32843 393 317 393.67157 317 394.5 L 317 399.5 C 317 400.32843 316.32843 401 315.5 401 L 274.5 401 C 273.67157 401 273 400.32843 273 399.5 L 273 394.5 C 273 393.67157 273.67157 393 274.5 393 Z"/>
        <path id="path19" fill="#22c55e" stroke="none" d="M 281.5 377 C 281.5 377.82843 280.82843 378.5 280 378.5 C 279.17157 378.5 278.5 377.82843 278.5 377 C 278.5 376.17157 279.17157 375.5 280 375.5 C 280.82843 375.5 281.5 376.17157 281.5 377 Z"/>
        <path id="path20" fill="#22c55e" stroke="none" d="M 281.5 387 C 281.5 387.82843 280.82843 388.5 280 388.5 C 279.17157 388.5 278.5 387.82843 278.5 387 C 278.5 386.17157 279.17157 385.5 280 385.5 C 280.82843 385.5 281.5 386.17157 281.5 387 Z"/>
        <path id="path21" fill="#22c55e" stroke="none" d="M 281.5 397 C 281.5 397.82843 280.82843 398.5 280 398.5 C 279.17157 398.5 278.5 397.82843 278.5 397 C 278.5 396.17157 279.17157 395.5 280 395.5 C 280.82843 395.5 281.5 396.17157 281.5 397 Z"/>
    </g>
    <text id="NASA-FIRMS" xml:space="preserve" x="393.48584" y="378" font-family="Helvetica" font-size="18" fill="#ffffff">NASA FIRMS</text>
    <text id="Fire-Information-for-Resource" xml:space="preserve" x="323.477051" y="399" font-family="Helvetica" font-size="11" fill="#9ca3af">Fire Information for Resource Management System</text>
    <text id="firmsmodapseosdisnasagov--3-h" xml:space="preserve" x="349.19873" y="414" font-family="Helvetica" font-size="10" fill="#6b7280">firms.modaps.eosdis.nasa.gov · ~3 h latency</text>
    <path id="path22" fill="#000000" stroke="#ff8a4d" stroke-width="2" d="M 450 430 L 450 475"/>
    <text id="CSV-poll-every-30" xml:space="preserve" x="464" y="457" font-family="Helvetica" font-size="11" fill="#9ca3af">CSV poll, every 30 min</text>
    <linearGradient id="linearGradient4" x1="60" y1="490" x2="60" y2="590" gradientUnits="userSpaceOnUse">
        <stop offset="1e-05" stop-color="#3a1810" stop-opacity="1"/>
        <stop offset="1" stop-color="#241008" stop-opacity="1"/>
    </linearGradient>
    <path id="path23" fill="url(#linearGradient4)" stroke="#5c2818" d="M 74 490 L 266 490 C 273.731995 490 280 496.268005 280 504 L 280 576 C 280 583.731995 273.731995 590 266 590 L 74 590 C 66.268013 590 60 583.731995 60 576 L 60 504 C 60 496.268005 66.268013 490 74 490 Z"/>
    <text id="PORTUGAL" xml:space="preserve" x="79" y="520" font-family="Helvetica" font-size="11" fill="#e0a098" letter-spacing="2">PORTUGAL</text>
    <text id="-ANEPC-ArcGIS" xml:space="preserve" x="109.200195" y="553" font-family="Helvetica" font-size="14" fill="#ffffff">🇵🇹 ANEPC ArcGIS</text>
    <text id="-Fogospt-fallback" xml:space="preserve" x="122.182373" y="564" font-family="Helvetica" font-size="11" fill="#d4a89b">+ Fogos.pt fallback</text>
    <text id="every-10-min-" xml:space="preserve" x="105.140625" y="581" font-family="Helvetica" font-size="10" fill="#9b756a">every 10 min · official source</text>
    <linearGradient id="linearGradient5" x1="320" y1="490" x2="320" y2="660" gradientUnits="userSpaceOnUse">
        <stop offset="1e-05" stop-color="#5c2818" stop-opacity="1"/>
        <stop offset="1" stop-color="#3a1810" stop-opacity="1"/>
    </linearGradient>
    <path id="path24" fill="url(#linearGradient5)" stroke="#7d3a25" stroke-width="1.5" d="M 334 490 L 826 490 C 833.731995 490 840 496.268005 840 504 L 840 646 C 840 653.731995 833.731995 660 826 660 L 334 660 C 326.268005 660 320 653.731995 320 646 L 320 504 C 320 496.268005 326.268005 490 334 490 Z"/>
    <text id="ALERTA-BACKEND" xml:space="preserve" x="339" y="520" font-family="Helvetica" font-size="11" fill="#ffae80" letter-spacing="2">ALERTA BACKEND</text>
    <g id="g4">
        <path id="path25" fill="#ff6b3a" stroke="none" opacity="0.85" d="M 348 572 C 348.493896 565.922485 352.864563 560.863586 358.805969 559.492493 C 364.747345 558.121399 370.892883 560.753479 374 566 C 378.172943 562.3573 383.933105 561.13208 389.227356 562.761047 C 394.521606 564.390076 398.59668 568.641541 400 574 C 405.522858 574.552307 409.552277 579.477173 409 585 C 408.447723 590.522827 403.522858 594.552307 398 594 L 354 594 C 348.820953 593.73645 344.397095 590.175964 343.032654 585.172913 C 341.668182 580.169861 343.671844 574.856384 348 572 Z"/>
    </g>
    <text id="Cloudflare-Worker" xml:space="preserve" x="506.135254" y="557" font-family="Helvetica" font-size="18" fill="#ffffff">Cloudflare Worker</text>
    <text id="EU-edge-compute-" xml:space="preserve" x="497.227539" y="580" font-family="Helvetica" font-size="12" fill="#ffd0b8">EU edge compute · TypeScript</text>
    <text id="1-Filter-by-FRP" xml:space="preserve" x="507.067139" y="610" font-family="Helvetica" font-size="11" fill="#e0c4b6">1. Filter by FRP &amp; confidence</text>
    <text id="2-Match-against-each" xml:space="preserve" x="486.455078" y="626" font-family="Helvetica" font-size="11" fill="#e0c4b6">2. Match against each device's radius</text>
    <text id="3-Localise-message-into" xml:space="preserve" x="483.407471" y="642" font-family="Helvetica" font-size="11" fill="#e0c4b6">3. Localise message into 13 languages</text>
    <path id="path26" fill="none" stroke="#ff8a4d" stroke-width="2" d="M 450 430 L 450 460 L 450 490"/>
    <path id="path27" fill="#000000" stroke="#ff8a4d" stroke-width="2" d="M 280 540 L 320 540"/>
    <path id="path28" fill="#000000" stroke="#ff8a4d" stroke-width="2" d="M 580 675 L 580 720"/>
    <text id="FCM-HTTP-v1" xml:space="preserve" x="594" y="702" font-family="Helvetica" font-size="11" fill="#9ca3af">FCM HTTP v1</text>
    <linearGradient id="linearGradient6" x1="370" y1="735" x2="370" y2="825" gradientUnits="userSpaceOnUse">
        <stop offset="1e-05" stop-color="#1e2a3a" stop-opacity="1"/>
        <stop offset="1" stop-color="#141c28" stop-opacity="1"/>
    </linearGradient>
    <path id="path29" fill="url(#linearGradient6)" stroke="#2a3a55" d="M 384 735 L 776 735 C 783.731995 735 790 741.268005 790 749 L 790 811 C 790 818.731995 783.731995 825 776 825 L 384 825 C 376.268005 825 370 818.731995 370 811 L 370 749 C 370 741.268005 376.268005 735 384 735 Z"/>
    <text id="GOOGLE" xml:space="preserve" x="389" y="765" font-family="Helvetica" font-size="11" fill="#7aa3d4" letter-spacing="2">GOOGLE</text>
    <text id="Firebase-Cloud-Messaging" xml:space="preserve" x="471.444824" y="792" font-family="Helvetica" font-size="18" fill="#ffffff">Firebase Cloud Messaging</text>
    <text id="Routes-to-APNs-iOS" xml:space="preserve" x="477.518555" y="812" font-family="Helvetica" font-size="11" fill="#9ca3af">Routes to APNs (iOS) and FCM (Android)</text>
    <path id="path30" fill="#000000" stroke="#ff8a4d" stroke-width="2" d="M 500 835 L 280 900"/>
    <path id="path31" fill="#000000" stroke="#ff8a4d" stroke-width="2" d="M 660 835 L 680 900"/>
    <g id="g5">
        <path id="path32" fill="#1f1f1f" stroke="#525252" stroke-width="2" d="M 334 920 L 406 920 C 413.731995 920 420 926.268005 420 934 L 420 1066 C 420 1073.731934 413.731995 1080 406 1080 L 334 1080 C 326.268005 1080 320 1073.731934 320 1066 L 320 934 C 320 926.268005 326.268005 920 334 920 Z"/>
        <path id="path33" fill="#ff6b3a" stroke="none" d="M 333 940 L 407 940 C 408.65686 940 410 941.34314 410 943 L 410 1057 C 410 1058.65686 408.65686 1060 407 1060 L 333 1060 C 331.34314 1060 330 1058.65686 330 1057 L 330 943 C 330 941.34314 331.34314 940 333 940 Z"/>
        <path id="path34" fill="#525252" stroke="none" d="M 373 1070 C 373 1071.65686 371.65686 1073 370 1073 C 368.34314 1073 367 1071.65686 367 1070 C 367 1068.34314 368.34314 1067 370 1067 C 371.65686 1067 373 1068.34314 373 1070 Z"/>
        <text id="text3" xml:space="preserve" x="356" y="988" font-family="Helvetica" font-size="22" fill="#000000">🍎</text>
        <text id="-Brand" xml:space="preserve" x="349.741699" y="1018" font-family="Helvetica" font-size="9" fill="#ffffff">🔥 Brand</text>
        <text id="erkannt" xml:space="preserve" x="353.990479" y="1027" font-family="Helvetica" font-size="9" fill="#ffffff">erkannt</text>
        <text id="Frankreich" xml:space="preserve" x="349.105469" y="1047" font-family="Helvetica" font-size="8" fill="#ffd0b8">Frankreich</text>
        <text id="12-km--FIRMS" xml:space="preserve" x="341.330078" y="1057" font-family="Helvetica" font-size="8" fill="#ffd0b8">12 km · FIRMS</text>
    </g>
    <text id="iOS" xml:space="preserve" x="357.164551" y="1101" font-family="Helvetica" font-size="13" fill="#ffffff">iOS</text>
    <text id="via-APNs" xml:space="preserve" x="258.211914" y="1120" font-family="Helvetica" font-size="10" fill="#9ca3af">via APNs</text>
    <g id="g6">
        <path id="path35" fill="#1f1f1f" stroke="#525252" stroke-width="2" d="M 754 920 L 826 920 C 833.731995 920 840 926.268005 840 934 L 840 1066 C 840 1073.731934 833.731995 1080 826 1080 L 754 1080 C 746.268005 1080 740 1073.731934 740 1066 L 740 934 C 740 926.268005 746.268005 920 754 920 Z"/>
        <path id="path36" fill="#ff6b3a" stroke="none" d="M 753 940 L 827 940 C 828.65686 940 830 941.34314 830 943 L 830 1057 C 830 1058.65686 828.65686 1060 827 1060 L 753 1060 C 751.34314 1060 750 1058.65686 750 1057 L 750 943 C 750 941.34314 751.34314 940 753 940 Z"/>
        <path id="path37" fill="#525252" stroke="none" d="M 793 1070 C 793 1071.65686 791.65686 1073 790 1073 C 788.34314 1073 787 1071.65686 787 1070 C 787 1068.34314 788.34314 1067 790 1067 C 791.65686 1067 793 1068.34314 793 1070 Z"/>
        <text id="text4" xml:space="preserve" x="776" y="988" font-family="Helvetica" font-size="22" fill="#000000">🤖</text>
        <text id="-Poar" xml:space="preserve" x="769.994385" y="1018" font-family="Helvetica" font-size="9" fill="#ffffff">🔥 Pożar</text>
        <text id="wykryty" xml:space="preserve" x="773.001465" y="1027" font-family="Helvetica" font-size="9" fill="#ffffff">wykryty</text>
        <text id="Hiszpania" xml:space="preserve" x="770.435547" y="1047" font-family="Helvetica" font-size="8" fill="#ffd0b8">Hiszpania</text>
        <text id="8-km--FIRMS" xml:space="preserve" x="764.554688" y="1057" font-family="Helvetica" font-size="8" fill="#ffd0b8">8 km · FIRMS</text>
    </g>
    <text id="Android" xml:space="preserve" x="763.595947" y="1101" font-family="Helvetica" font-size="13" fill="#ffffff">Android</text>
    <text id="via-FCM" xml:space="preserve" x="659.38916" y="1120" font-family="Helvetica" font-size="10" fill="#9ca3af">via FCM</text>
    <text id="DATA-SOURCES" xml:space="preserve" x="59" y="1172" font-family="Helvetica" font-size="11" fill="#9ca3af" letter-spacing="2">DATA SOURCES</text>
    <g id="g7">
        <path id="path38" fill="#3b82f6" stroke="none" d="M 63 1185 L 71 1185 C 72.656853 1185 74 1186.34314 74 1188 L 74 1196 C 74 1197.65686 72.656853 1199 71 1199 L 63 1199 C 61.343147 1199 60 1197.65686 60 1196 L 60 1188 C 60 1186.34314 61.343147 1185 63 1185 Z"/>
        <text id="VIIRS-sensor--hardware" xml:space="preserve" x="81" y="1198" font-family="Helvetica" font-size="11" fill="#cbd5e1">VIIRS sensor — hardware on satellites</text>
    </g>
    <g id="g8">
        <path id="path39" fill="#1e3a5f" stroke="none" d="M 63 1208 L 71 1208 C 72.656853 1208 74 1209.34314 74 1211 L 74 1219 C 74 1220.65686 72.656853 1222 71 1222 L 63 1222 C 61.343147 1222 60 1220.65686 60 1219 L 60 1211 C 60 1209.34314 61.343147 1208 63 1208 Z"/>
        <text id="NASA-FIRMS--data" xml:space="preserve" x="81" y="1221" font-family="Helvetica" font-size="11" fill="#cbd5e1">NASA FIRMS — data API for VIIRS detections</text>
    </g>
    <g id="g9">
        <path id="path40" fill="#5c2818" stroke="none" d="M 63 1231 L 71 1231 C 72.656853 1231 74 1232.34314 74 1234 L 74 1242 C 74 1243.65686 72.656853 1245 71 1245 L 63 1245 C 61.343147 1245 60 1243.65686 60 1242 L 60 1234 C 60 1232.34314 61.343147 1231 63 1231 Z"/>
        <text id="ANEPC--Fogospt-" xml:space="preserve" x="81" y="1244" font-family="Helvetica" font-size="11" fill="#cbd5e1">ANEPC + Fogos.pt — Portugal-only authority feed</text>
    </g>
    <g id="g10">
        <path id="path41" fill="#ff6b3a" stroke="none" d="M 63 1254 L 71 1254 C 72.656853 1254 74 1255.34314 74 1257 L 74 1265 C 74 1266.65686 72.656853 1268 71 1268 L 63 1268 C 61.343147 1268 60 1266.65686 60 1265 L 60 1257 C 60 1255.34314 61.343147 1254 63 1254 Z"/>
        <text id="Alerta-Backend-Cloudflare-Worker" xml:space="preserve" x="81" y="1267" font-family="Helvetica" font-size="11" fill="#cbd5e1">Alerta Backend (Cloudflare Worker, EU edge)</text>
    </g>
</svg>
