<?xml version="1.0" encoding="UTF-8"?>
<!-- Generated by Pixelmator Pro 3.8 -->
<svg width="900" height="1280" viewBox="0 0 900 1280" xmlns="http://www.w3.org/2000/svg">
    <linearGradient id="linearGradient1" x1="-1" y1="0" x2="899" y2="1280" gradientUnits="userSpaceOnUse">
        <stop offset="1e-05" stop-color="#0a0e1a" stop-opacity="1"/>
        <stop offset="0.65" stop-color="#0f1422" stop-opacity="1"/>
        <stop offset="1" stop-color="#2a1410" stop-opacity="1"/>
    </linearGradient>
    <path id="Path" fill="url(#linearGradient1)" stroke="none" d="M -1 0 L 899 0 L 899 1280 L -1 1280 Z"/>
    <text id="How-a-wildfire-reaches" xml:space="preserve" x="248" y="54" font-family="Helvetica" font-size="26" fill="#ffffff">How a wildfire reaches your phone</text>
    <text id="From-satellite-detection-to" xml:space="preserve" x="227" y="80" font-family="Helvetica" font-size="13" fill="#9ca3af">From satellite detection to push notification — under 30 minutes, end to end.</text>
    <linearGradient id="linearGradient2" x1="60" y1="110" x2="60" y2="245" gradientUnits="userSpaceOnUse">
        <stop offset="1e-05" stop-color="#1a2540" stop-opacity="1"/>
        <stop offset="1" stop-color="#0f172e" stop-opacity="1"/>
    </linearGradient>
    <path id="path1" fill="url(#linearGradient2)" stroke="#2a3a55" d="M 74 110 L 826 110 C 833.731995 110 840 116.268066 840 124 L 840 231 C 840 238.731934 833.731995 245 826 245 L 74 245 C 66.268013 245 60 238.731934 60 231 L 60 124 C 60 116.268066 66.268013 110 74 110 Z"/>
    <text id="SPACE--800-km" xml:space="preserve" x="369" y="130" font-family="Helvetica" font-size="11" fill="#7aa3d4" letter-spacing="2">SPACE · 800 km altitude</text>
    <g id="Group">
        <text id="NOAA-20" xml:space="preserve" x="139" y="217" font-family="Helvetica" font-size="13" fill="#ffffff">NOAA-20</text>
        <text id="VIIRS-sensor" xml:space="preserve" x="138" y="233" font-family="Helvetica" font-size="10" fill="#9ca3af">VIIRS sensor</text>
    </g>
    <g id="g1">
        <text id="Suomi-NPP" xml:space="preserve" x="415" y="211" font-family="Helvetica" font-size="13" fill="#ffffff">Suomi-NPP</text>
        <text id="text1" xml:space="preserve" x="420" y="227" font-family="Helvetica" font-size="10" fill="#9ca3af">VIIRS sensor</text>
    </g>
    <g id="satellite-svgrepo-com">
        <g id="g2">
            <path id="path2" fill="#b4b4b4" stroke="none" d="M 459.925934 155.074097 L 464.604645 159.752808 L 479.31958 145.03772 L 474.641022 140.359009 L 465.952301 145.762695 Z"/>
            <path id="path3" fill="#b4b4b4" stroke="none" d="M 432.037689 192.31958 L 446.752747 177.604492 L 442.074066 172.925903 L 432.436584 177.944214 L 427.3591 187.640991 Z"/>
        </g>
        <g id="g3">
            <path id="path4" fill="#e0e0e0" stroke="none" d="M 474.641022 140.359009 L 459.926636 155.073364 L 455.24762 150.394409 L 469.962006 135.680054 Z"/>
            <path id="path5" fill="#e0e0e0" stroke="none" d="M 437.396332 168.248047 L 442.074493 172.926147 L 427.360107 187.640503 L 422.681976 182.962402 Z"/>
        </g>
        <g id="g4">
            <path id="path6" fill="#424242" stroke="none" d="M 475.98114 139.018799 L 466.442963 146.722656 L 454.554596 160.445435 L 455.894836 161.785645 L 459.925812 157.754761 L 464.604401 162.43335 L 482 145.03772 L 475.98114 139.018799 Z M 464.604523 157.072388 L 462.606354 155.074219 L 464.830963 152.849609 L 466.829132 154.847778 L 464.604523 157.072388 Z M 469.509674 152.167358 L 467.511505 150.169189 L 469.735992 147.944702 L 471.734161 149.942871 L 469.509674 152.167358 Z M 472.416412 145.26416 L 474.641022 143.039551 L 476.639191 145.03772 L 474.414581 147.262329 L 472.416412 145.26416 Z"/>
            <path id="path7" fill="#424242" stroke="none" d="M 432.037689 195 L 449.433167 177.604492 L 444.754456 172.925781 L 448.785431 168.894897 L 447.445282 167.554688 L 433.722595 179.443115 L 426.018738 188.981323 L 432.037689 195 Z M 442.074066 175.606323 L 444.072235 177.604492 L 441.847626 179.829102 L 439.849457 177.830933 L 442.074066 175.606323 Z M 437.169037 180.511353 L 439.167206 182.509521 L 436.942596 184.734131 L 434.944427 182.735962 L 437.169037 180.511353 Z M 434.262299 187.414551 L 432.037689 189.63916 L 430.03952 187.640869 L 432.26413 185.416382 L 434.262299 187.414551 Z"/>
        </g>
        <g id="g5">
            <path id="path8" fill="#707070" stroke="none" d="M 469.962433 133 L 452.566956 150.395508 L 457.245544 155.074097 L 453.214569 159.105103 L 454.554718 160.445313 L 475.98114 139.018799 L 469.962433 133 Z M 459.925934 152.393799 L 457.927765 150.39563 L 460.152374 148.171021 L 462.150543 150.169189 L 459.925934 152.393799 Z M 464.830963 147.488647 L 462.832794 145.490479 L 465.057281 143.265991 L 467.05545 145.26416 L 464.830963 147.488647 Z M 467.737701 140.585449 L 469.962311 138.36084 L 471.96048 140.359009 L 469.73587 142.583618 L 467.737701 140.585449 Z"/>
            <path id="path9" fill="#707070" stroke="none" d="M 442.074188 170.245483 L 437.395477 165.566895 L 420 182.96228 L 426.018829 188.981201 L 447.445282 167.554688 L 446.105164 166.2146 L 442.074188 170.245483 Z M 427.3591 184.960571 L 425.360931 182.962402 L 427.585541 180.737793 L 429.58371 182.735962 L 427.3591 184.960571 Z M 432.26413 180.055542 L 430.265961 178.057373 L 432.49057 175.832764 L 434.488739 177.830933 L 432.26413 180.055542 Z M 437.169037 175.150513 L 435.170746 173.152222 L 437.395355 170.927612 L 439.393646 172.925903 L 437.169037 175.150513 Z"/>
        </g>
        <path id="path10" fill="#003da8" stroke="none" d="M 432.142181 154.038452 L 450.328644 172.225098 C 451.516815 173.413208 453.096497 174.067627 454.776917 174.067627 C 456.456848 174.067627 458.036285 173.413452 459.224335 172.225952 L 449.433167 159.072388 L 436.5896 149.591064 L 432.142181 154.038452 Z"/>
        <path id="path11" fill="#2f91ed" stroke="none" d="M 459.225037 163.328613 L 441.038452 145.14209 L 436.5896 149.591064 L 459.224335 172.22583 C 459.224579 172.225586 459.224792 172.225342 459.225037 172.225098 C 461.677673 169.772339 461.677673 165.781372 459.225037 163.328613 Z"/>
        <path id="path12" fill="#424242" stroke="none" d="M 460.572571 176.253052 L 464.901672 180.582153 L 466.241089 179.242676 L 462.510437 174.315308 Z"/>
        <path id="path13" fill="#707070" stroke="none" d="M 467.582428 177.901611 L 466.241364 179.242676 L 461.912567 174.913818 L 463.253632 173.572754 Z"/>
        <path id="path14" fill="#2f91ed" stroke="none" d="M 455.595642 174.943726 C 455.610901 176.624023 456.279694 178.197754 457.478638 179.375 L 459.391541 181.253418 L 463.798279 176.765625 L 461.657104 172.691406 L 457.397034 170.479736 C 456.219879 171.678589 455.580139 173.263916 455.595642 174.943726 Z"/>
        <path id="path15" fill="#63c1ff" stroke="none" d="M 466.293427 170.397949 C 465.094452 169.220703 463.50885 168.580688 461.82843 168.595947 C 460.148254 168.611206 458.574524 169.280029 457.397278 170.479004 C 457.397034 170.479248 457.39679 170.479492 457.396545 170.479736 L 463.798035 176.765625 L 468.206207 172.276245 L 466.293427 170.397949 Z"/>
        <path id="path16" fill="#424242" stroke="none" d="M 433.817047 159.43396 L 436.497437 162.114258 L 442.804993 155.806519 L 442.074066 153.639648 L 440.124817 153.126099 Z"/>
        <path id="path17" fill="#707070" stroke="none" d="M 449.112885 149.497925 L 442.804169 155.806641 L 440.12384 153.126343 L 446.432556 146.817627 Z"/>
    </g>
    <g id="satellite-svgrepo-com-copy-2">
        <g id="g6">
            <path id="path18" fill="#b4b4b4" stroke="none" d="M 738.925964 155.074097 L 743.604614 159.752808 L 758.31958 145.03772 L 753.640991 140.359009 L 744.952271 145.762695 Z"/>
            <path id="path19" fill="#b4b4b4" stroke="none" d="M 711.037659 192.31958 L 725.752747 177.604492 L 721.074036 172.925903 L 711.436584 177.944214 L 706.359131 187.640991 Z"/>
        </g>
        <g id="g7">
            <path id="path20" fill="#e0e0e0" stroke="none" d="M 753.640991 140.359009 L 738.926636 155.073364 L 734.24762 150.394409 L 748.962036 135.680054 Z"/>
            <path id="path21" fill="#e0e0e0" stroke="none" d="M 716.396362 168.248047 L 721.074463 172.926147 L 706.360107 187.640503 L 701.681946 182.962402 Z"/>
        </g>
        <g id="g8">
            <path id="path22" fill="#424242" stroke="none" d="M 754.98114 139.018799 L 745.442993 146.722656 L 733.554565 160.445435 L 734.894836 161.785645 L 738.925842 157.754761 L 743.60437 162.43335 L 761 145.03772 L 754.98114 139.018799 Z M 743.604492 157.072388 L 741.606323 155.074219 L 743.830994 152.849609 L 745.829102 154.847778 L 743.604492 157.072388 Z M 748.509644 152.167358 L 746.511475 150.169189 L 748.735962 147.944702 L 750.734131 149.942871 L 748.509644 152.167358 Z M 751.416382 145.26416 L 753.640991 143.039551 L 755.63916 145.03772 L 753.414551 147.262329 L 751.416382 145.26416 Z"/>
            <path id="path23" fill="#424242" stroke="none" d="M 711.037659 195 L 728.433167 177.604492 L 723.754456 172.925781 L 727.785461 168.894897 L 726.445313 167.554688 L 712.722595 179.443115 L 705.018738 188.981323 L 711.037659 195 Z M 721.074036 175.606323 L 723.072205 177.604492 L 720.847595 179.829102 L 718.849426 177.830933 L 721.074036 175.606323 Z M 716.169006 180.511353 L 718.167175 182.509521 L 715.942566 184.734131 L 713.944397 182.735962 L 716.169006 180.511353 Z M 713.262329 187.414551 L 711.037659 189.63916 L 709.03949 187.640869 L 711.26416 185.416382 L 713.262329 187.414551 Z"/>
        </g>
        <g id="g9">
            <path id="path24" fill="#707070" stroke="none" d="M 748.962402 133 L 731.566956 150.395508 L 736.245544 155.074097 L 732.214539 159.105103 L 733.554688 160.445313 L 754.98114 139.018799 L 748.962402 133 Z M 738.925964 152.393799 L 736.927795 150.39563 L 739.152405 148.171021 L 741.150574 150.169189 L 738.925964 152.393799 Z M 743.830994 147.488647 L 741.832825 145.490479 L 744.057312 143.265991 L 746.055481 145.26416 L 743.830994 147.488647 Z M 746.737671 140.585449 L 748.962341 138.36084 L 750.960449 140.359009 L 748.73584 142.583618 L 746.737671 140.585449 Z"/>
            <path id="path25" fill="#707070" stroke="none" d="M 721.074158 170.245483 L 716.395508 165.566895 L 699 182.96228 L 705.01886 188.981201 L 726.445313 167.554688 L 725.105164 166.2146 L 721.074158 170.245483 Z M 706.359131 184.960571 L 704.360962 182.962402 L 706.585571 180.737793 L 708.58374 182.735962 L 706.359131 184.960571 Z M 711.26416 180.055542 L 709.265991 178.057373 L 711.490601 175.832764 L 713.48877 177.830933 L 711.26416 180.055542 Z M 716.169006 175.150513 L 714.170776 173.152222 L 716.395386 170.927612 L 718.393677 172.925903 L 716.169006 175.150513 Z"/>
        </g>
        <path id="path26" fill="#003da8" stroke="none" d="M 711.142212 154.038452 L 729.328674 172.225098 C 730.516846 173.413208 732.096497 174.067627 733.776917 174.067627 C 735.456848 174.067627 737.036255 173.413452 738.224304 172.225952 L 728.433167 159.072388 L 715.5896 149.591064 L 711.142212 154.038452 Z"/>
        <path id="path27" fill="#2f91ed" stroke="none" d="M 738.225037 163.328613 L 720.038452 145.14209 L 715.5896 149.591064 L 738.224304 172.22583 C 738.224548 172.225586 738.224792 172.225342 738.225037 172.225098 C 740.677673 169.772339 740.677673 165.781372 738.225037 163.328613 Z"/>
        <path id="path28" fill="#424242" stroke="none" d="M 739.572571 176.253052 L 743.901672 180.582153 L 745.241089 179.242676 L 741.510437 174.315308 Z"/>
        <path id="path29" fill="#707070" stroke="none" d="M 746.582397 177.901611 L 745.241333 179.242676 L 740.912537 174.913818 L 742.253601 173.572754 Z"/>
        <path id="path30" fill="#2f91ed" stroke="none" d="M 734.595642 174.943726 C 734.610901 176.624023 735.279663 178.197754 736.478638 179.375 L 738.391541 181.253418 L 742.798279 176.765625 L 740.657104 172.691406 L 736.397034 170.479736 C 735.219849 171.678589 734.580139 173.263916 734.595642 174.943726 Z"/>
        <path id="path31" fill="#63c1ff" stroke="none" d="M 745.293396 170.397949 C 744.094482 169.220703 742.50885 168.580688 740.82843 168.595947 C 739.148254 168.611206 737.574524 169.280029 736.397278 170.479004 C 736.397034 170.479248 736.39679 170.479492 736.396545 170.479736 L 742.798035 176.765625 L 747.206238 172.276245 L 745.293396 170.397949 Z"/>
        <path id="path32" fill="#424242" stroke="none" d="M 712.817017 159.43396 L 715.497437 162.114258 L 721.804993 155.806519 L 721.074036 153.639648 L 719.124817 153.126099 Z"/>
        <path id="path33" fill="#707070" stroke="none" d="M 728.112854 149.497925 L 721.804138 155.806641 L 719.12384 153.126343 L 725.432556 146.817627 Z"/>
    </g>
    <g id="satellite-svgrepo-com-copy">
        <g id="g10">
            <path id="path34" fill="#b4b4b4" stroke="none" d="M 176.925934 157.074097 L 181.604645 161.752808 L 196.319595 147.03772 L 191.641006 142.359009 L 182.952286 147.762695 Z"/>
            <path id="path35" fill="#b4b4b4" stroke="none" d="M 149.037689 194.31958 L 163.752762 179.604492 L 159.074066 174.925903 L 149.436569 179.944214 L 144.359116 189.640991 Z"/>
        </g>
        <g id="g11">
            <path id="path36" fill="#e0e0e0" stroke="none" d="M 191.641006 142.359009 L 176.926636 157.073364 L 172.247635 152.394409 L 186.962006 137.680054 Z"/>
            <path id="path37" fill="#e0e0e0" stroke="none" d="M 154.396347 170.248047 L 159.074493 174.926147 L 144.360107 189.640503 L 139.681961 184.962402 Z"/>
        </g>
        <g id="g12">
            <path id="path38" fill="#424242" stroke="none" d="M 192.981155 141.018799 L 183.442963 148.722656 L 171.554581 162.445435 L 172.894852 163.785645 L 176.925812 159.754761 L 181.604401 164.43335 L 199 147.03772 L 192.981155 141.018799 Z M 181.604523 159.072388 L 179.606354 157.074219 L 181.830963 154.849609 L 183.829132 156.847778 L 181.604523 159.072388 Z M 186.509659 154.167358 L 184.51149 152.169189 L 186.735992 149.944702 L 188.734161 151.942871 L 186.509659 154.167358 Z M 189.416397 147.26416 L 191.641006 145.039551 L 193.639175 147.03772 L 191.414566 149.262329 L 189.416397 147.26416 Z"/>
            <path id="path39" fill="#424242" stroke="none" d="M 149.037689 197 L 166.433167 179.604492 L 161.754471 174.925781 L 165.785431 170.894897 L 164.445297 169.554688 L 150.72258 181.443115 L 143.018723 190.981323 L 149.037689 197 Z M 159.074066 177.606323 L 161.07222 179.604492 L 158.84761 181.829102 L 156.849442 179.830933 L 159.074066 177.606323 Z M 154.169037 182.511353 L 156.167206 184.509521 L 153.942596 186.734131 L 151.944427 184.735962 L 154.169037 182.511353 Z M 151.262299 189.414551 L 149.037689 191.63916 L 147.03952 189.640869 L 149.26413 187.416382 L 151.262299 189.414551 Z"/>
        </g>
        <g id="g13">
            <path id="path40" fill="#707070" stroke="none" d="M 186.962433 135 L 169.566956 152.395508 L 174.245529 157.074097 L 170.214569 161.105103 L 171.554703 162.445313 L 192.981155 141.018799 L 186.962433 135 Z M 176.925934 154.393799 L 174.927765 152.39563 L 177.15239 150.171021 L 179.150558 152.169189 L 176.925934 154.393799 Z M 181.830963 149.488647 L 179.832794 147.490479 L 182.057281 145.265991 L 184.05545 147.26416 L 181.830963 149.488647 Z M 184.737701 142.585449 L 186.962311 140.36084 L 188.96048 142.359009 L 186.73587 144.583618 L 184.737701 142.585449 Z"/>
            <path id="path41" fill="#707070" stroke="none" d="M 159.074173 172.245483 L 154.395477 167.566895 L 137 184.96228 L 143.018845 190.981201 L 164.445297 169.554688 L 163.105148 168.2146 L 159.074173 172.245483 Z M 144.359116 186.960571 L 142.360947 184.962402 L 144.585556 182.737793 L 146.583725 184.735962 L 144.359116 186.960571 Z M 149.26413 182.055542 L 147.265961 180.057373 L 149.490585 177.832764 L 151.488739 179.830933 L 149.26413 182.055542 Z M 154.169037 177.150513 L 152.170746 175.152222 L 154.395355 172.927612 L 156.393646 174.925903 L 154.169037 177.150513 Z"/>
        </g>
        <path id="path42" fill="#003da8" stroke="none" d="M 149.142197 156.038452 L 167.328659 174.225098 C 168.51683 175.413208 170.096497 176.067627 171.776917 176.067627 C 173.456848 176.067627 175.03627 175.413452 176.224319 174.225952 L 166.433167 161.072388 L 153.5896 151.591064 L 149.142197 156.038452 Z"/>
        <path id="path43" fill="#2f91ed" stroke="none" d="M 176.225052 165.328613 L 158.038467 147.14209 L 153.5896 151.591064 L 176.224319 174.22583 C 176.224564 174.225586 176.224808 174.225342 176.225052 174.225098 C 178.677689 171.772339 178.677689 167.781372 176.225052 165.328613 Z"/>
        <path id="path44" fill="#424242" stroke="none" d="M 177.572586 178.253052 L 181.901688 182.582153 L 183.241104 181.242676 L 179.510437 176.315308 Z"/>
        <path id="path45" fill="#707070" stroke="none" d="M 184.582413 179.901611 L 183.241348 181.242676 L 178.912567 176.913818 L 180.253632 175.572754 Z"/>
        <path id="path46" fill="#2f91ed" stroke="none" d="M 172.595627 176.943726 C 172.610886 178.624023 173.279694 180.197754 174.478638 181.375 L 176.391556 183.253418 L 180.798279 178.765625 L 178.657089 174.691406 L 174.397018 172.479736 C 173.219864 173.678589 172.580124 175.263916 172.595627 176.943726 Z"/>
        <path id="path47" fill="#63c1ff" stroke="none" d="M 183.293411 172.397949 C 182.094467 171.220703 180.508865 170.580688 178.828445 170.595947 C 177.14827 170.611206 175.574539 171.280029 174.397263 172.479004 C 174.397018 172.479248 174.396774 172.479492 174.39653 172.479736 L 180.798035 178.765625 L 185.206207 174.276245 L 183.293411 172.397949 Z"/>
        <path id="path48" fill="#424242" stroke="none" d="M 150.817032 161.43396 L 153.497452 164.114258 L 159.804977 157.806519 L 159.074066 155.639648 L 157.124817 155.126099 Z"/>
        <path id="path49" fill="#707070" stroke="none" d="M 166.112869 151.497925 L 159.804169 157.806641 L 157.12384 155.126343 L 163.432541 148.817627 Z"/>
    </g>
    <g id="g14">
        <text id="NOAA-21" xml:space="preserve" x="699" y="217" font-family="Helvetica" font-size="13" fill="#ffffff">NOAA-21</text>
        <text id="text2" xml:space="preserve" x="698" y="233" font-family="Helvetica" font-size="10" fill="#9ca3af">VIIRS sensor</text>
    </g>
    <text id="Each-satellite-passes-over" xml:space="preserve" x="278" y="241" font-family="Helvetica" font-size="11" font-style="italic" fill="#6b7280">Each satellite passes over Europe twice a day · 375 m pixel resolution</text>
    <path id="path50" fill="#000000" stroke="#ff8a4d" stroke-width="2" d="M 450 250 L 450 310"/>
    <text id="raw-thermal-data" xml:space="preserve" x="463" y="294" font-family="Helvetica" font-size="11" fill="#9ca3af">raw thermal data</text>
    <linearGradient id="linearGradient3" x1="185" y1="320" x2="185" y2="420" gradientUnits="userSpaceOnUse">
        <stop offset="1e-05" stop-color="#1e3a5f" stop-opacity="1"/>
        <stop offset="1" stop-color="#152944" stop-opacity="1"/>
    </linearGradient>
    <path id="path51" fill="url(#linearGradient3)" stroke="#2a4a78" d="M 202.133331 320 L 681.866638 320 C 691.329163 320 699 326.268005 699 334 L 699 406 C 699 413.731995 691.329163 420 681.866638 420 L 202.133331 420 C 192.670868 420 185 413.731995 185 406 L 185 334 C 185 326.268005 192.670868 320 202.133331 320 Z"/>
    <text id="NASA--USA" xml:space="preserve" x="202" y="350" font-family="Helvetica" font-size="11" fill="#7aa3d4" letter-spacing="2">NASA · USA</text>
    <text id="NASA-FIRMS" xml:space="preserve" x="392" y="350" font-family="Helvetica" font-size="18" fill="#ffffff">NASA FIRMS</text>
    <text id="Fire-Information-for-Resource" xml:space="preserve" x="324" y="376" font-family="Helvetica" font-size="11" fill="#9ca3af">Fire Information for Resource Management System</text>
    <text id="firmsmodapseosdisnasagov--3-h" xml:space="preserve" x="350" y="391" font-family="Helvetica" font-size="10" fill="#6b7280">firms.modaps.eosdis.nasa.gov · ~3 h latency</text>
    <path id="path52" fill="#000000" stroke="#ff8a4d" stroke-width="2" d="M 450 430 L 450 475"/>
    <text id="CSV-poll-every-30" xml:space="preserve" x="463" y="459" font-family="Helvetica" font-size="11" fill="#9ca3af">CSV poll, every 30 min</text>
    <linearGradient id="linearGradient4" x1="48" y1="535" x2="48" y2="635" gradientUnits="userSpaceOnUse">
        <stop offset="1e-05" stop-color="#3a1810" stop-opacity="1"/>
        <stop offset="1" stop-color="#241008" stop-opacity="1"/>
    </linearGradient>
    <path id="path53" fill="url(#linearGradient4)" stroke="#5c2818" d="M 62 535 L 254 535 C 261.731995 535 268 541.268005 268 549 L 268 621 C 268 628.731995 261.731995 635 254 635 L 62 635 C 54.268013 635 48 628.731995 48 621 L 48 549 C 48 541.268005 54.268013 535 62 535 Z"/>
    <g id="server-svgrepo-com">
        <path id="path54" fill="#556080" stroke="none" d="M 261.039764 373.93103 L 220.854965 373.93103 C 219.278717 373.93103 218 372.652283 218 371.07605 L 218 361.751526 C 218 360.175293 219.278717 358.896545 220.854965 358.896545 L 261.038971 358.896545 C 262.616028 358.896545 263.894745 360.175293 263.894745 361.751526 L 263.894745 371.075256 C 263.894745 372.652283 262.616028 373.93103 261.039764 373.93103 Z"/>
        <path id="path55" fill="#424a60" stroke="none" d="M 261.039764 388.965515 L 220.854965 388.965515 C 219.278717 388.965515 218 387.686768 218 386.110535 L 218 376.786011 C 218 375.209778 219.278717 373.93103 220.854965 373.93103 L 261.038971 373.93103 C 262.616028 373.93103 263.893951 375.209778 263.893951 376.786011 L 263.893951 386.109741 C 263.894745 387.686768 262.616028 388.965515 261.039764 388.965515 Z"/>
        <path id="path56" fill="#556080" stroke="none" d="M 261.039764 404 L 220.854965 404 C 219.278717 404 218 402.721252 218 401.14502 L 218 391.820496 C 218 390.244263 219.278717 388.965515 220.854965 388.965515 L 261.038971 388.965515 C 262.616028 388.965515 263.893951 390.244263 263.893951 391.820496 L 263.893951 401.144226 C 263.894745 402.721252 262.616028 404 261.039764 404 Z"/>
        <path id="path57" fill="#7383bf" stroke="none" d="M 228.286758 366.413818 C 228.286758 367.943359 227.046799 369.183289 225.517242 369.183289 C 223.987686 369.183289 222.747726 367.943359 222.747726 366.413818 C 222.747726 364.884216 223.987686 363.644287 225.517242 363.644287 C 227.046799 363.644287 228.286758 364.884216 228.286758 366.413818 Z"/>
        <path id="path58" fill="#7383bf" stroke="none" d="M 257.564423 365.226868 C 257.564423 365.663879 257.210175 366.018127 256.773132 366.018127 C 256.336121 366.018127 255.981857 365.663879 255.981857 365.226868 C 255.981857 364.789856 256.336121 364.435547 256.773132 364.435547 C 257.210175 364.435547 257.564423 364.789856 257.564423 365.226868 Z"/>
        <path id="path59" fill="#7383bf" stroke="none" d="M 254.399277 365.226868 C 254.399277 365.663879 254.045013 366.018127 253.607986 366.018127 C 253.170975 366.018127 252.816696 365.663879 252.816696 365.226868 C 252.816696 364.789856 253.170975 364.435547 253.607986 364.435547 C 254.045013 364.435547 254.399277 364.789856 254.399277 365.226868 Z"/>
        <path id="path60" fill="#7383bf" stroke="none" d="M 259.147003 367.600708 C 259.147003 368.03772 258.792725 368.392029 258.355713 368.392029 C 257.918701 368.392029 257.564423 368.03772 257.564423 367.600708 C 257.564423 367.163696 257.918701 366.809448 258.355713 366.809448 C 258.792725 366.809448 259.147003 367.163696 259.147003 367.600708 Z"/>
        <path id="path61" fill="#7383bf" stroke="none" d="M 255.981857 367.600708 C 255.981857 368.03772 255.627579 368.392029 255.190567 368.392029 C 254.753555 368.392029 254.399277 368.03772 254.399277 367.600708 C 254.399277 367.163696 254.753555 366.809448 255.190567 366.809448 C 255.627579 366.809448 255.981857 367.163696 255.981857 367.600708 Z"/>
        <path id="path62" fill="#7383bf" stroke="none" d="M 251.234131 365.226868 C 251.234131 365.663879 250.879852 366.018127 250.442841 366.018127 C 250.005814 366.018127 249.65155 365.663879 249.65155 365.226868 C 249.65155 364.789856 250.005814 364.435547 250.442841 364.435547 C 250.879852 364.435547 251.234131 364.789856 251.234131 365.226868 Z"/>
        <path id="path63" fill="#7383bf" stroke="none" d="M 252.816696 367.600708 C 252.816696 368.03772 252.462433 368.392029 252.025406 368.392029 C 251.588394 368.392029 251.234131 368.03772 251.234131 367.600708 C 251.234131 367.163696 251.588394 366.809448 252.025406 366.809448 C 252.462433 366.809448 252.816696 367.163696 252.816696 367.600708 Z"/>
        <path id="path64" fill="#7383bf" stroke="none" d="M 248.06897 365.226868 C 248.06897 365.663879 247.714691 366.018127 247.277679 366.018127 C 246.840668 366.018127 246.486389 365.663879 246.486389 365.226868 C 246.486389 364.789856 246.840668 364.435547 247.277679 364.435547 C 247.714691 364.435547 248.06897 364.789856 248.06897 365.226868 Z"/>
        <path id="path65" fill="#7383bf" stroke="none" d="M 249.65155 367.600708 C 249.65155 368.03772 249.297272 368.392029 248.86026 368.392029 C 248.423233 368.392029 248.06897 368.03772 248.06897 367.600708 C 248.06897 367.163696 248.423233 366.809448 248.86026 366.809448 C 249.297272 366.809448 249.65155 367.163696 249.65155 367.600708 Z"/>
        <path id="path66" fill="#7383bf" stroke="none" d="M 244.903809 365.226868 C 244.903809 365.663879 244.549545 366.018127 244.112534 366.018127 C 243.675507 366.018127 243.321243 365.663879 243.321243 365.226868 C 243.321243 364.789856 243.675507 364.435547 244.112534 364.435547 C 244.549545 364.435547 244.903809 364.789856 244.903809 365.226868 Z"/>
        <path id="path67" fill="#7383bf" stroke="none" d="M 246.486389 367.600708 C 246.486389 368.03772 246.132126 368.392029 245.695099 368.392029 C 245.258087 368.392029 244.903809 368.03772 244.903809 367.600708 C 244.903809 367.163696 245.258087 366.809448 245.695099 366.809448 C 246.132126 366.809448 246.486389 367.163696 246.486389 367.600708 Z"/>
        <path id="path68" fill="#7383bf" stroke="none" d="M 228.286758 381.448303 C 228.286758 382.977844 227.046799 384.217773 225.517242 384.217773 C 223.987686 384.217773 222.747726 382.977844 222.747726 381.448303 C 222.747726 379.918701 223.987686 378.678772 225.517242 378.678772 C 227.046799 378.678772 228.286758 379.918701 228.286758 381.448303 Z"/>
        <path id="path69" fill="#7383bf" stroke="none" d="M 257.564423 380.261353 C 257.564423 380.698364 257.210175 381.052612 256.773132 381.052612 C 256.336121 381.052612 255.981857 380.698364 255.981857 380.261353 C 255.981857 379.824341 256.336121 379.470032 256.773132 379.470032 C 257.210175 379.470032 257.564423 379.824341 257.564423 380.261353 Z"/>
        <path id="path70" fill="#7383bf" stroke="none" d="M 254.399277 380.261353 C 254.399277 380.698364 254.045013 381.052612 253.607986 381.052612 C 253.170975 381.052612 252.816696 380.698364 252.816696 380.261353 C 252.816696 379.824341 253.170975 379.470032 253.607986 379.470032 C 254.045013 379.470032 254.399277 379.824341 254.399277 380.261353 Z"/>
        <path id="path71" fill="#7383bf" stroke="none" d="M 259.147003 382.635193 C 259.147003 383.072205 258.792725 383.426514 258.355713 383.426514 C 257.918701 383.426514 257.564423 383.072205 257.564423 382.635193 C 257.564423 382.198181 257.918701 381.843933 258.355713 381.843933 C 258.792725 381.843933 259.147003 382.198181 259.147003 382.635193 Z"/>
        <path id="path72" fill="#7383bf" stroke="none" d="M 255.981857 382.635193 C 255.981857 383.072205 255.627579 383.426514 255.190567 383.426514 C 254.753555 383.426514 254.399277 383.072205 254.399277 382.635193 C 254.399277 382.198181 254.753555 381.843933 255.190567 381.843933 C 255.627579 381.843933 255.981857 382.198181 255.981857 382.635193 Z"/>
        <path id="path73" fill="#7383bf" stroke="none" d="M 251.234131 380.261353 C 251.234131 380.698364 250.879852 381.052612 250.442841 381.052612 C 250.005814 381.052612 249.65155 380.698364 249.65155 380.261353 C 249.65155 379.824341 250.005814 379.470032 250.442841 379.470032 C 250.879852 379.470032 251.234131 379.824341 251.234131 380.261353 Z"/>
        <path id="path74" fill="#7383bf" stroke="none" d="M 252.816696 382.635193 C 252.816696 383.072205 252.462433 383.426514 252.025406 383.426514 C 251.588394 383.426514 251.234131 383.072205 251.234131 382.635193 C 251.234131 382.198181 251.588394 381.843933 252.025406 381.843933 C 252.462433 381.843933 252.816696 382.198181 252.816696 382.635193 Z"/>
        <path id="path75" fill="#7383bf" stroke="none" d="M 248.06897 380.261353 C 248.06897 380.698364 247.714691 381.052612 247.277679 381.052612 C 246.840668 381.052612 246.486389 380.698364 246.486389 380.261353 C 246.486389 379.824341 246.840668 379.470032 247.277679 379.470032 C 247.714691 379.470032 248.06897 379.824341 248.06897 380.261353 Z"/>
        <path id="path76" fill="#7383bf" stroke="none" d="M 249.65155 382.635193 C 249.65155 383.072205 249.297272 383.426514 248.86026 383.426514 C 248.423233 383.426514 248.06897 383.072205 248.06897 382.635193 C 248.06897 382.198181 248.423233 381.843933 248.86026 381.843933 C 249.297272 381.843933 249.65155 382.198181 249.65155 382.635193 Z"/>
        <path id="path77" fill="#7383bf" stroke="none" d="M 244.903809 380.261353 C 244.903809 380.698364 244.549545 381.052612 244.112534 381.052612 C 243.675507 381.052612 243.321243 380.698364 243.321243 380.261353 C 243.321243 379.824341 243.675507 379.470032 244.112534 379.470032 C 244.549545 379.470032 244.903809 379.824341 244.903809 380.261353 Z"/>
        <path id="path78" fill="#7383bf" stroke="none" d="M 246.486389 382.635193 C 246.486389 383.072205 246.132126 383.426514 245.695099 383.426514 C 245.258087 383.426514 244.903809 383.072205 244.903809 382.635193 C 244.903809 382.198181 245.258087 381.843933 245.695099 381.843933 C 246.132126 381.843933 246.486389 382.198181 246.486389 382.635193 Z"/>
        <path id="path79" fill="#7383bf" stroke="none" d="M 228.286758 396.482788 C 228.286758 398.012329 227.046799 399.252258 225.517242 399.252258 C 223.987686 399.252258 222.747726 398.012329 222.747726 396.482788 C 222.747726 394.953186 223.987686 393.713257 225.517242 393.713257 C 227.046799 393.713257 228.286758 394.953186 228.286758 396.482788 Z"/>
        <path id="path80" fill="#7383bf" stroke="none" d="M 257.564423 395.295837 C 257.564423 395.732849 257.210175 396.087097 256.773132 396.087097 C 256.336121 396.087097 255.981857 395.732849 255.981857 395.295837 C 255.981857 394.858826 256.336121 394.504517 256.773132 394.504517 C 257.210175 394.504517 257.564423 394.858826 257.564423 395.295837 Z"/>
        <path id="path81" fill="#7383bf" stroke="none" d="M 254.399277 395.295837 C 254.399277 395.732849 254.045013 396.087097 253.607986 396.087097 C 253.170975 396.087097 252.816696 395.732849 252.816696 395.295837 C 252.816696 394.858826 253.170975 394.504517 253.607986 394.504517 C 254.045013 394.504517 254.399277 394.858826 254.399277 395.295837 Z"/>
        <path id="path82" fill="#7383bf" stroke="none" d="M 259.147003 397.669678 C 259.147003 398.106689 258.792725 398.460999 258.355713 398.460999 C 257.918701 398.460999 257.564423 398.106689 257.564423 397.669678 C 257.564423 397.232666 257.918701 396.878418 258.355713 396.878418 C 258.792725 396.878418 259.147003 397.232666 259.147003 397.669678 Z"/>
        <path id="path83" fill="#7383bf" stroke="none" d="M 255.981857 397.669678 C 255.981857 398.106689 255.627579 398.460999 255.190567 398.460999 C 254.753555 398.460999 254.399277 398.106689 254.399277 397.669678 C 254.399277 397.232666 254.753555 396.878418 255.190567 396.878418 C 255.627579 396.878418 255.981857 397.232666 255.981857 397.669678 Z"/>
        <path id="path84" fill="#7383bf" stroke="none" d="M 251.234131 395.295837 C 251.234131 395.732849 250.879852 396.087097 250.442841 396.087097 C 250.005814 396.087097 249.65155 395.732849 249.65155 395.295837 C 249.65155 394.858826 250.005814 394.504517 250.442841 394.504517 C 250.879852 394.504517 251.234131 394.858826 251.234131 395.295837 Z"/>
        <path id="path85" fill="#7383bf" stroke="none" d="M 252.816696 397.669678 C 252.816696 398.106689 252.462433 398.460999 252.025406 398.460999 C 251.588394 398.460999 251.234131 398.106689 251.234131 397.669678 C 251.234131 397.232666 251.588394 396.878418 252.025406 396.878418 C 252.462433 396.878418 252.816696 397.232666 252.816696 397.669678 Z"/>
        <path id="path86" fill="#7383bf" stroke="none" d="M 248.06897 395.295837 C 248.06897 395.732849 247.714691 396.087097 247.277679 396.087097 C 246.840668 396.087097 246.486389 395.732849 246.486389 395.295837 C 246.486389 394.858826 246.840668 394.504517 247.277679 394.504517 C 247.714691 394.504517 248.06897 394.858826 248.06897 395.295837 Z"/>
        <path id="path87" fill="#7383bf" stroke="none" d="M 249.65155 397.669678 C 249.65155 398.106689 249.297272 398.460999 248.86026 398.460999 C 248.423233 398.460999 248.06897 398.106689 248.06897 397.669678 C 248.06897 397.232666 248.423233 396.878418 248.86026 396.878418 C 249.297272 396.878418 249.65155 397.232666 249.65155 397.669678 Z"/>
        <path id="path88" fill="#7383bf" stroke="none" d="M 244.903809 395.295837 C 244.903809 395.732849 244.549545 396.087097 244.112534 396.087097 C 243.675507 396.087097 243.321243 395.732849 243.321243 395.295837 C 243.321243 394.858826 243.675507 394.504517 244.112534 394.504517 C 244.549545 394.504517 244.903809 394.858826 244.903809 395.295837 Z"/>
        <path id="path89" fill="#7383bf" stroke="none" d="M 246.486389 397.669678 C 246.486389 398.106689 246.132126 398.460999 245.695099 398.460999 C 245.258087 398.460999 244.903809 398.106689 244.903809 397.669678 C 244.903809 397.232666 245.258087 396.878418 245.695099 396.878418 C 246.132126 396.878418 246.486389 397.232666 246.486389 397.669678 Z"/>
    </g>
    <text id="PORTUGAL" xml:space="preserve" x="63" y="563" font-family="Helvetica" font-size="11" fill="#e0a098" letter-spacing="2">PORTUGAL</text>
    <text id="-ANEPC-ArcGIS" xml:space="preserve" x="92" y="587" font-family="Helvetica" font-size="14" fill="#ffffff">🇵🇹 ANEPC ArcGIS</text>
    <text id="every-10-min-" xml:space="preserve" x="92" y="612" font-family="Helvetica" font-size="10" fill="#9b756a">every 10 min · official source</text>
    <linearGradient id="linearGradient5" x1="320" y1="490" x2="320" y2="660" gradientUnits="userSpaceOnUse">
        <stop offset="1e-05" stop-color="#5c2818" stop-opacity="1"/>
        <stop offset="1" stop-color="#3a1810" stop-opacity="1"/>
    </linearGradient>
    <path id="path90" fill="url(#linearGradient5)" stroke="#7d3a25" stroke-width="1.5" d="M 334 490 L 826 490 C 833.731995 490 840 496.268005 840 504 L 840 646 C 840 653.731995 833.731995 660 826 660 L 334 660 C 326.268005 660 320 653.731995 320 646 L 320 504 C 320 496.268005 326.268005 490 334 490 Z"/>
    <text id="ALERTA-BACKEND" xml:space="preserve" x="338" y="536" font-family="Helvetica" font-size="11" fill="#ffae80" letter-spacing="2">ALERTA BACKEND</text>
    <g id="g15">
        <path id="path91" fill="#ff6b3a" stroke="none" opacity="0.85" d="M 375 574 C 375.493896 567.922485 379.864563 562.863586 385.805969 561.492493 C 391.747345 560.121399 397.892883 562.753479 401 568 C 405.172943 564.3573 410.933105 563.13208 416.227356 564.761047 C 421.521606 566.390076 425.59668 570.641541 427 576 C 432.522858 576.552307 436.552277 581.477173 436 587 C 435.447723 592.522827 430.522858 596.552307 425 596 L 381 596 C 375.820953 595.73645 371.397095 592.175964 370.032654 587.172913 C 368.668182 582.169861 370.671844 576.856384 375 574 Z"/>
    </g>
    <text id="Cloudflare-Worker" xml:space="preserve" x="507" y="524" font-family="Helvetica" font-size="18" fill="#ffffff">Cloudflare Worker</text>
    <text id="EU-edge-compute-" xml:space="preserve" x="506" y="554" font-family="Helvetica" font-size="12" fill="#ffd0b8">EU edge compute · TypeScript</text>
    <text id="1-Filter-by-FRP" xml:space="preserve" x="506" y="583" font-family="Helvetica" font-size="11" fill="#e0c4b6">1. Filter by FRP &amp; confidence</text>
    <text id="2-Match-against-each" xml:space="preserve" x="485" y="599" font-family="Helvetica" font-size="11" fill="#e0c4b6">2. Match against each device's radius</text>
    <text id="3-Localise-message-into" xml:space="preserve" x="482" y="615" font-family="Helvetica" font-size="11" fill="#e0c4b6">3. Localise message into 13 languages</text>
    <path id="path92" fill="none" stroke="#ff8a4d" stroke-width="2" d="M 450 424 L 450 454 L 450 484"/>
    <path id="path93" fill="#000000" stroke="#ff8a4d" stroke-width="2" d="M 273 585 L 313 585"/>
    <path id="path94" fill="#000000" stroke="#ff8a4d" stroke-width="2" d="M 579 664 L 579 728"/>
    <text id="FCM-HTTP-v1" xml:space="preserve" x="593" y="704" font-family="Helvetica" font-size="11" fill="#9ca3af">FCM HTTP v1</text>
    <linearGradient id="linearGradient6" x1="370" y1="735" x2="370" y2="825" gradientUnits="userSpaceOnUse">
        <stop offset="1e-05" stop-color="#1e2a3a" stop-opacity="1"/>
        <stop offset="1" stop-color="#141c28" stop-opacity="1"/>
    </linearGradient>
    <path id="path95" fill="url(#linearGradient6)" stroke="#2a3a55" d="M 384 735 L 776 735 C 783.731995 735 790 741.268005 790 749 L 790 811 C 790 818.731995 783.731995 825 776 825 L 384 825 C 376.268005 825 370 818.731995 370 811 L 370 749 C 370 741.268005 376.268005 735 384 735 Z"/>
    <text id="GOOGLE" xml:space="preserve" x="388" y="767" font-family="Helvetica" font-size="11" fill="#7aa3d4" letter-spacing="2">GOOGLE</text>
    <text id="Firebase-Cloud-Messaging" xml:space="preserve" x="469" y="774" font-family="Helvetica" font-size="18" fill="#ffffff">Firebase Cloud Messaging</text>
    <text id="Routes-to-APNs-iOS" xml:space="preserve" x="478" y="794" font-family="Helvetica" font-size="11" fill="#9ca3af">Routes to APNs (iOS) and FCM (Android)</text>
    <path id="path96" fill="#000000" stroke="#ff8a4d" stroke-width="2" d="M 502.000427 835.001343 L 276 909"/>
    <path id="path97" fill="#000000" stroke="#ff8a4d" stroke-width="2" d="M 652 835 L 676 909"/>
    <g id="g16">
        <path id="path98" fill="#1f1f1f" stroke="#525252" stroke-width="2" d="M 239 920 L 311 920 C 318.731995 920 325 926.268005 325 934 L 325 1066 C 325 1073.731934 318.731995 1080 311 1080 L 239 1080 C 231.268005 1080 225 1073.731934 225 1066 L 225 934 C 225 926.268005 231.268005 920 239 920 Z"/>
        <path id="path99" fill="#ff6b3a" stroke="none" d="M 238 940 L 312 940 C 313.65686 940 315 941.34314 315 943 L 315 1057 C 315 1058.65686 313.65686 1060 312 1060 L 238 1060 C 236.34314 1060 235 1058.65686 235 1057 L 235 943 C 235 941.34314 236.34314 940 238 940 Z"/>
        <path id="path100" fill="#525252" stroke="none" d="M 278 1070 C 278 1071.65686 276.65686 1073 275 1073 C 273.34314 1073 272 1071.65686 272 1070 C 272 1068.34314 273.34314 1067 275 1067 C 276.65686 1067 278 1068.34314 278 1070 Z"/>
        <text id="text3" xml:space="preserve" x="260" y="996" font-family="Helvetica" font-size="22" fill="#000000">🍎</text>
        <text id="-Brand" xml:space="preserve" x="249" y="1022" font-family="Helvetica" font-size="9" fill="#ffffff">🔥 Brand</text>
        <text id="erkannt" xml:space="preserve" x="257" y="1033" font-family="Helvetica" font-size="9" fill="#ffffff">erkannt</text>
        <text id="Frankreich" xml:space="preserve" x="253" y="1049" font-family="Helvetica" font-size="8" fill="#ffd0b8">Frankreich</text>
        <text id="12-km--FIRMS" xml:space="preserve" x="245" y="1059" font-family="Helvetica" font-size="8" fill="#ffd0b8">12 km · FIRMS</text>
    </g>
    <text id="iOS" xml:space="preserve" x="260" y="1103" font-family="Helvetica" font-size="13" fill="#ffffff">iOS</text>
    <text id="via-APNs" xml:space="preserve" x="250" y="1122" font-family="Helvetica" font-size="10" fill="#9ca3af">via APNs</text>
    <g id="g17">
        <path id="path101" fill="#1f1f1f" stroke="#525252" stroke-width="2" d="M 644 920 L 716 920 C 723.731995 920 730 926.268005 730 934 L 730 1066 C 730 1073.731934 723.731995 1080 716 1080 L 644 1080 C 636.268005 1080 630 1073.731934 630 1066 L 630 934 C 630 926.268005 636.268005 920 644 920 Z"/>
        <path id="path102" fill="#ff6b3a" stroke="none" d="M 643 940 L 717 940 C 718.65686 940 720 941.34314 720 943 L 720 1057 C 720 1058.65686 718.65686 1060 717 1060 L 643 1060 C 641.34314 1060 640 1058.65686 640 1057 L 640 943 C 640 941.34314 641.34314 940 643 940 Z"/>
        <path id="path103" fill="#525252" stroke="none" d="M 683 1070 C 683 1071.65686 681.65686 1073 680 1073 C 678.34314 1073 677 1071.65686 677 1070 C 677 1068.34314 678.34314 1067 680 1067 C 681.65686 1067 683 1068.34314 683 1070 Z"/>
        <text id="text4" xml:space="preserve" x="665" y="996" font-family="Helvetica" font-size="22" fill="#000000">🤖</text>
        <text id="-Poar" xml:space="preserve" x="654" y="1022" font-family="Helvetica" font-size="9" fill="#ffffff">🔥 Pożar</text>
        <text id="wykryty" xml:space="preserve" x="660" y="1033" font-family="Helvetica" font-size="9" fill="#ffffff">wykryty</text>
        <text id="Hiszpania" xml:space="preserve" x="659" y="1049" font-family="Helvetica" font-size="8" fill="#ffd0b8">Hiszpania</text>
        <text id="8-km--FIRMS" xml:space="preserve" x="654" y="1059" font-family="Helvetica" font-size="8" fill="#ffd0b8">8 km · FIRMS</text>
    </g>
    <text id="Android" xml:space="preserve" x="655" y="1103" font-family="Helvetica" font-size="13" fill="#ffffff">Android</text>
    <text id="via-FCM" xml:space="preserve" x="658" y="1122" font-family="Helvetica" font-size="10" fill="#9ca3af">via FCM</text>
    <text id="DATA-SOURCES" xml:space="preserve" x="58" y="1174" font-family="Helvetica" font-size="11" fill="#9ca3af" letter-spacing="2">DATA SOURCES</text>
    <g id="g18">
        <path id="path104" fill="#3b82f6" stroke="none" d="M 63 1185 L 71 1185 C 72.656853 1185 74 1186.34314 74 1188 L 74 1196 C 74 1197.65686 72.656853 1199 71 1199 L 63 1199 C 61.343147 1199 60 1197.65686 60 1196 L 60 1188 C 60 1186.34314 61.343147 1185 63 1185 Z"/>
        <text id="VIIRS-sensor--hardware" xml:space="preserve" x="80" y="1200" font-family="Helvetica" font-size="11" fill="#cbd5e1">VIIRS sensor — hardware on satellites</text>
    </g>
    <g id="g19">
        <path id="path105" fill="#1e3a5f" stroke="none" d="M 63 1208 L 71 1208 C 72.656853 1208 74 1209.34314 74 1211 L 74 1219 C 74 1220.65686 72.656853 1222 71 1222 L 63 1222 C 61.343147 1222 60 1220.65686 60 1219 L 60 1211 C 60 1209.34314 61.343147 1208 63 1208 Z"/>
        <text id="NASA-FIRMS--data" xml:space="preserve" x="80" y="1223" font-family="Helvetica" font-size="11" fill="#cbd5e1">NASA FIRMS — data API for VIIRS detections</text>
    </g>
    <g id="g20">
        <path id="path106" fill="#5c2818" stroke="none" d="M 63 1231 L 71 1231 C 72.656853 1231 74 1232.34314 74 1234 L 74 1242 C 74 1243.65686 72.656853 1245 71 1245 L 63 1245 C 61.343147 1245 60 1243.65686 60 1242 L 60 1234 C 60 1232.34314 61.343147 1231 63 1231 Z"/>
        <text id="ANEPC--Fogospt-" xml:space="preserve" x="80" y="1246" font-family="Helvetica" font-size="11" fill="#cbd5e1">ANEPC + Fogos.pt — Portugal-only authority feed</text>
    </g>
    <g id="g21">
        <path id="path107" fill="#ff6b3a" stroke="none" d="M 63 1254 L 71 1254 C 72.656853 1254 74 1255.34314 74 1257 L 74 1265 C 74 1266.65686 72.656853 1268 71 1268 L 63 1268 C 61.343147 1268 60 1266.65686 60 1265 L 60 1257 C 60 1255.34314 61.343147 1254 63 1254 Z"/>
        <text id="Alerta-Backend-Cloudflare-Worker" xml:space="preserve" x="80" y="1269" font-family="Helvetica" font-size="11" fill="#cbd5e1">Alerta Backend (Cloudflare Worker, EU edge)</text>
    </g>
</svg>
